{"accessors":[{"bufferView":2,"componentType":5126,"count":510,"max":[65.49842834472656,62.9144401550293,12.764097213745117],"min":[-65.49842834472656,-62.9144401550293,-12.764097213745117],"type":"VEC3"},{"bufferView":2,"byteOffset":6120,"componentType":5126,"count":510,"max":[0.999267041683197,0.998957633972168,1],"min":[-0.9992671608924866,-0.6909065246582031,-1],"type":"VEC3"},{"bufferView":3,"componentType":5126,"count":510,"max":[1,0.7191880345344543,0.8026654720306396,1],"min":[-0.9989559054374695,-0.999266505241394,-0.8026671409606934,1],"type":"VEC4"},{"bufferView":1,"componentType":5126,"count":510,"max":[0.9915154576301575,0.9855820536613464],"min":[0.01573336124420166,0.020230889320373535],"type":"VEC2"},{"bufferView":0,"componentType":5125,"count":1392,"max":[509],"min":[0],"type":"SCALAR"},{"bufferView":4,"componentType":5126,"count":74,"max":[2.5],"min":[0.0416666679084301],"type":"SCALAR"},{"bufferView":5,"componentType":5126,"count":74,"max":[8.348369963028185e-17,0.9999858140945435,8.348369963028185e-17,1],"min":[-8.658793641562595e-17,-0.8477344512939453,-8.658793641562595e-17,-0.493838906288147],"type":"VEC4"}],"animations":[{"channels":[{"sampler":0,"target":{"node":5,"path":"rotation"}}],"name":"Take 001","samplers":[{"input":5,"interpolation":"LINEAR","output":6}]}],"asset":{"extras":{"author":"KloWorks (https://sketchfab.com/kloworks)","license":"CC-BY-4.0 (http://creativecommons.org/licenses/by/4.0/)","source":"https://sketchfab.com/3d-models/spinels-gem-a8619c5c2f484422ae495440538a104c","title":"Spinel's gem"},"generator":"Sketchfab-6.99.1","version":"2.0"},"bufferViews":[{"buffer":0,"byteLength":5568,"byteOffset":0,"name":"floatBufferViews","target":34963},{"buffer":0,"byteLength":4080,"byteOffset":5568,"byteStride":8,"name":"floatBufferViews","target":34962},{"buffer":0,"byteLength":12240,"byteOffset":9648,"byteStride":12,"name":"floatBufferViews","target":34962},{"buffer":0,"byteLength":8160,"byteOffset":21888,"byteStride":16,"name":"floatBufferViews","target":34962},{"buffer":0,"byteLength":296,"byteOffset":30048,"name":"floatBufferViews"},{"buffer":0,"byteLength":1184,"byteOffset":30344,"byteStride":16,"name":"floatBufferViews"}],"buffers":[{"byteLength":31528,"uri":"data:application/octet-stream;base64,"}],"materials":[{"doubleSided":true,"emissiveFactor":[0,0,0],"name":"blinn1","pbrMetallicRoughness":{"baseColorFactor":[1,0,0,1],"metallicFactor":0,"roughnessFactor":0.15072408540000004}}],"meshes":[{"name":"xxx_blinn1_0","primitives":[{"attributes":{"NORMAL":1,"POSITION":0,"TANGENT":2,"TEXCOORD_0":3},"indices":4,"material":0,"mode":4}]}],"nodes":[{"children":[1],"name":"RootNode (gltf orientation matrix)","rotation":[-0.7071067811865475,0,0,0.7071067811865476]},{"children":[2],"name":"RootNode (model correction matrix)"},{"children":[3],"matrix":[1,0,0,0,0,0,1,0,0,-1,0,0,0,0,0,1],"name":"6e190eef5ae648a08b8a6b3ffad65018.fbx"},{"children":[4],"name":""},{"children":[5],"name":"RootNode"},{"children":[6],"name":"xxx","translation":[0,0.24664306640625,-12.923105239868164]},{"mesh":0,"name":"xxx_blinn1_0"}],"scene":0,"scenes":[{"name":"OSG_Scene","nodes":[0]}]}